# xmcd
# Track frame offsets:
# 150
# 18961
# 35203
# 55981
# 72409
# 91432
# 108773
# 120169
# 140131
# 158812
# 177200
# 199571
# 215637
# 234931
# 253570
# 271783
# 280938
#
# Disc length: 3927 seconds
# Revision: 0
# Processed by: cddbd v1.5.2PL0 Copyright (c) Steve Scherf et al.
# Submitted via: VisiTrax 2.11.0.264 - For more info visit www.synapsa.com
#
DISCID=ee0f5511
DTITLE=The Texettes - The Lady and The Tramp
DYEAR=2009
DGENRE=
TTITLE0=Redwood floor
TTITLE1=Looks like rainin
TTITLE2=Talk in english
TTITLE3=The engineer
TTITLE4=Tunnel of love
TTITLE5=What am I doing here?
TTITLE6=Nothing is right
TTITLE7=Hello heartache
TTITLE8=Where did the good times go?
TTITLE9=I'm a big girl now
TTITLE10=Edward bear
TTITLE11=Miss cigarettes
TTITLE12=Distant shore
TTITLE13=Mare street
TTITLE14=The rodeo
TTITLE15=The lady and the tramp
TTITLE16=?
EXTD=
EXTT0=
EXTT1=
EXTT2=
EXTT3=
EXTT4=
EXTT5=
EXTT6=
EXTT7=
EXTT8=
EXTT9=
EXTT10=
EXTT11=
EXTT12=
EXTT13=
EXTT14=
EXTT15=
EXTT16=
PLAYORDER=
